<svg width="104" height="104" viewBox="0 0 104 104" fill="none" xmlns="http://www.w3.org/2000/svg">
<rect x="1" y="1" width="102" height="102" rx="21" transform="matrix(0 -1 -1 0 104 104)" fill="white" stroke="black" stroke-width="2"/>
<path d="M22 72V52C22 44.0435 25.1607 36.4129 30.7868 30.7868C36.4129 25.1607 44.0435 22 52 22C59.9565 22 67.5871 25.1607 73.2132 30.7868C78.8393 36.4129 82 44.0435 82 52V72M82 75.3333C82 77.1014 81.2976 78.7971 80.0474 80.0474C78.7971 81.2976 77.1014 82 75.3333 82H72C70.2319 82 68.5362 81.2976 67.286 80.0474C66.0357 78.7971 65.3333 77.1014 65.3333 75.3333V65.3333C65.3333 63.5652 66.0357 61.8695 67.286 60.6193C68.5362 59.369 70.2319 58.6667 72 58.6667H82V75.3333ZM22 75.3333C22 77.1014 22.7024 78.7971 23.9526 80.0474C25.2029 81.2976 26.8986 82 28.6667 82H32C33.7681 82 35.4638 81.2976 36.714 80.0474C37.9643 78.7971 38.6667 77.1014 38.6667 75.3333V65.3333C38.6667 63.5652 37.9643 61.8695 36.714 60.6193C35.4638 59.369 33.7681 58.6667 32 58.6667H22V75.3333Z" stroke="#1E1E1E" stroke-width="4" stroke-linecap="round" stroke-linejoin="round"/>
</svg>
